<?xml version="1.0" standalone="yes"?>
<!DOCTYPE svg PUBLIC "-//W3C//DTD SVG 1.1//EN"
 "http://www.w3.org/Graphics/SVG/1.1/DTD/svg11.dtd">
<svg xmlns="http://www.w3.org/2000/svg" version="1.1"
  width="100%" height="100%" viewBox="0 0 1024 768"
  style="fill: none; font-family: Helvetica;
 font: Helvetica;
">

<!-- Creator: NGspice -->

<rect x="0" y="0" width="1024" height="768" fill="white" stroke="none"/>
<text stroke="none" fill="grey" font-size="16" x="358" y="752">
Time
</text>
<text transform="rotate(-90, 20, 509)"  stroke="none" fill="grey" font-size="16" x="20" y="509">
Bandgap Reference Voltage
</text>
<text stroke="none" fill="grey" font-size="16" x="10" y="16">
tran1: BGR Transient Analysis
</text>
<path stroke="grey" d="M175 704l0 -639"/>
<text stroke="none" fill="grey" font-size="16" x="160" y="728">
0.0
</text>
<path stroke="grey" stroke-dasharray="1,2" d="M314 704l0 -639"/>
<text stroke="none" fill="grey" font-size="16" x="299" y="728">
2.0
</text>
<path stroke="grey" stroke-dasharray="1,2" d="M453 704l0 -639"/>
<text stroke="none" fill="grey" font-size="16" x="438" y="728">
4.0
</text>
<path stroke="grey" stroke-dasharray="1,2" d="M592 704l0 -639"/>
<text stroke="none" fill="grey" font-size="16" x="577" y="728">
6.0
</text>
<path stroke="grey" stroke-dasharray="1,2" d="M731 704l0 -639"/>
<text stroke="none" fill="grey" font-size="16" x="716" y="728">
8.0
</text>
<path stroke="grey" stroke-dasharray="1,2" d="M870 704l0 -639"/>
<text stroke="none" fill="grey" font-size="16" x="850" y="728">
10.0
</text>
<text stroke="none" fill="grey" font-size="16" x="614" y="752">
us
</text>
<path stroke="grey" stroke-dasharray="1,2" d="M175 704l695 0"/>
<text stroke="none" fill="grey" font-size="16" x="43" y="712">
1.02671024060
</text>
<path stroke="grey" stroke-dasharray="1,2" d="M175 633l695 0"/>
<text stroke="none" fill="grey" font-size="16" x="43" y="641">
1.02671024065
</text>
<path stroke="grey" stroke-dasharray="1,2" d="M175 562l695 0"/>
<text stroke="none" fill="grey" font-size="16" x="43" y="570">
1.02671024070
</text>
<path stroke="grey" stroke-dasharray="1,2" d="M175 491l695 0"/>
<text stroke="none" fill="grey" font-size="16" x="43" y="499">
1.02671024075
</text>
<path stroke="grey" stroke-dasharray="1,2" d="M175 420l695 0"/>
<text stroke="none" fill="grey" font-size="16" x="43" y="428">
1.02671024080
</text>
<path stroke="grey" stroke-dasharray="1,2" d="M175 349l695 0"/>
<text stroke="none" fill="grey" font-size="16" x="43" y="357">
1.02671024085
</text>
<path stroke="grey" stroke-dasharray="1,2" d="M175 278l695 0"/>
<text stroke="none" fill="grey" font-size="16" x="43" y="286">
1.02671024090
</text>
<path stroke="grey" stroke-dasharray="1,2" d="M175 207l695 0"/>
<text stroke="none" fill="grey" font-size="16" x="43" y="215">
1.02671024095
</text>
<path stroke="grey" stroke-dasharray="1,2" d="M175 136l695 0"/>
<text stroke="none" fill="grey" font-size="16" x="43" y="144">
1.02671024100
</text>
<path stroke="grey" stroke-dasharray="1,2" d="M175 65l695 0"/>
<text stroke="none" fill="grey" font-size="16" x="43" y="73">
1.02671024105
</text>
<text stroke="none" fill="grey" font-size="16" x="10" y="32">
V
</text>
<path stroke="red" d="M347 23l34 0"/>
<text stroke="none" fill="grey" font-size="16" x="391" y="32">
v(vbg)
</text>
<path stroke="red" d="M175 656l0 -391 1 -30 0 -90 1 -11M177 145l0 -14 1 8M178 142l0 -6M178 141l1 3 0 -12M179 137l1 -3M180 137l0 -4M180 135l1 -2M181 138l0 -5M181 134l1 2M182 142l0 -10M182 139l1 -1M183 141l0 -10M183 133l1 -1M184 142l0 -11M184 136l1 1"/>
<path stroke="red" d="M185 140l0 -9 1 5M186 142l0 -10M186 141l1 0 0 -9 1 4M188 144l0 -13M188 138l1 4M189 143l0 -13M189 133l1 6M190 142l0 -4M190 139l1 -1M191 142l0 -12M191 139l1 2 0 -10M192 132l1 2M193 142l0 -10M193 142l1 -5M194 142l0 -11M194 138l1 -5"/>
<path stroke="red" d="M195 140l0 -9M195 132l1 1M196 143l0 -10M196 134l1 2M197 140l0 -8M197 138l1 0M198 142l0 -12M198 141l1 1 0 -11M199 136l1 1M200 140l0 -10M200 136l1 1M201 144l0 -12 1 -1M202 141l0 -10M202 136l1 0M203 143l0 -12M203 138l1 3 0 -10"/>
<path stroke="red" d="M204 139l1 -1M205 141l0 -10M205 140l1 -4M206 140l0 -9 1 0M207 144l0 -13M207 137l1 -5M208 143l0 -11M208 136l1 -5M209 140l0 -9M209 138l1 -1M210 141l0 -10M210 138l1 2M211 141l0 -9M211 140l1 -2M212 143l0 -11M212 136l1 6 0 -11"/>
<path stroke="red" d="M213 136l1 1M214 141l0 -11M214 136l1 2M215 140l0 -9M215 136l1 -3M216 142l0 -10 1 4M217 140l0 -8M217 133l1 2M218 139l0 -7 1 5M219 143l0 -7M219 137l1 5 0 -11M220 138l1 4 0 -10M221 141l1 0M222 142l0 -5M222 141l1 -4M223 142l0 -12"/>
<path stroke="red" d="M223 137l1 -4M224 143l0 -12M224 136l1 7 0 -11M225 134l1 1M226 144l0 -12M226 137l1 1M227 141l0 -10M227 140l1 -3M228 142l0 -10M228 138l1 3M229 142l0 -10M229 133l1 2M230 142l0 -11M230 133l1 3M231 140l0 -8M231 136l1 1M232 142l0 -11"/>
<path stroke="red" d="M232 139l1 -2 0 -7M233 131l1 6M234 142l0 -5M234 139l1 -2M235 142l0 -11M235 141l1 -2M236 142l0 -12 1 5M237 141l0 -10M237 132l1 3M238 142l0 -12M238 134l1 5M239 142l0 -10M239 140l1 -1M240 143l0 -12M240 140l1 -4M241 138l0 -7"/>
<path stroke="red" d="M241 133l1 5M242 142l0 -10M242 137l1 -2M243 142l0 -10 1 3M244 142l0 -11M244 140l1 0 0 -9 1 2M246 142l0 -12M246 137l1 -2M247 142l0 -11M247 137l1 -1M248 141l0 -9M248 138l1 -1M249 141l0 -4 1 -1M250 140l0 -9M250 140l1 0M251 143l0 -11"/>
<path stroke="red" d="M251 133l1 1M252 142l0 -10 1 2M253 141l0 -11M253 134l1 -3M254 143l0 -12M254 136l1 1M255 143l0 -12M255 133l1 1M256 141l0 -10M256 138l1 -1M257 143l0 -11M257 135l1 2M258 143l0 -10M258 136l1 -4M259 142l0 -10M259 141l1 -3M260 142l0 -11"/>
<path stroke="red" d="M260 136l1 4M261 143l0 -12M261 135l1 1M262 141l0 -10M262 137l1 1M263 142l0 -12 1 6M264 142l0 -12M264 132l1 4M265 141l0 -10 1 3M266 141l0 -7M266 139l1 -1M267 142l0 -10M267 137l1 -3M268 142l0 -11 1 4M269 141l0 -11M269 138l1 5"/>
<path stroke="red" d="M270 143l0 -12M270 133l1 1M271 143l0 -11M271 139l1 -2M272 142l0 -10M272 138l1 -1M273 140l0 -9M273 138l1 -1M274 142l0 -11M274 139l1 2 0 -10M275 135l1 2M276 143l0 -10 1 1M277 141l0 -9M277 136l1 0M278 140l0 -10M278 139l1 0"/>
<path stroke="red" d="M279 142l0 -6M279 141l1 -2M280 141l0 -10 1 2M281 141l0 -10M281 141l1 -5M282 143l0 -13M282 131l1 3M283 141l0 -9M283 137l1 0M284 142l0 -10M284 142l1 -2M285 141l0 -10M285 136l1 -4M286 141l0 -10 1 4M287 142l0 -11M287 142l1 -2"/>
<path stroke="red" d="M288 143l0 -13 1 4M289 143l0 -10M289 135l1 0M290 143l0 -11M290 133l1 -1M291 144l0 -12M291 133l1 6M292 141l0 -4M292 139l1 1M293 143l0 -11M293 140l1 1M294 142l0 -5M294 140l1 -3M295 140l0 -8M295 137l1 0M296 142l0 -11M296 134l1 -1"/>
<path stroke="red" d="M297 139l0 -6M297 135l1 3M298 142l0 -10M298 139l1 6 0 -14 1 4M300 143l0 -10M300 143l1 -4M301 143l0 -11M301 139l1 -2M302 142l0 -11M302 137l1 -2M303 141l0 -10M303 136l1 3M304 142l0 -11M304 136l1 4M305 143l0 -11M305 142l1 -4"/>
<path stroke="red" d="M306 140l0 -10M306 138l1 -1M307 140l0 -9M307 132l1 4M308 140l0 -10M308 135l1 6 0 -9M309 137l1 3 0 -9M310 140l1 -2M311 142l0 -10M311 133l1 0M312 141l0 -10M312 136l1 4M313 141l0 -10M313 141l1 -3M314 142l0 -12M314 138l1 -3"/>
<path stroke="red" d="M315 140l0 -10 1 6M316 142l0 -10M316 141l1 2 0 -13M317 137l1 4 0 -9M318 133l1 2M319 142l0 -11M319 138l1 2M320 142l0 -10M320 133l1 2M321 136l0 -4M321 133l1 5M322 143l0 -12M322 142l1 -5M323 141l0 -9M323 140l1 -2M324 142l0 -10"/>
<path stroke="red" d="M324 142l1 -3M325 142l0 -10M325 133l1 2M326 138l0 -6M326 135l1 5M327 144l0 -13M327 137l1 -4M328 142l0 -11M328 135l1 2M329 142l0 -10M329 135l1 4M330 140l0 -9M330 137l1 -5M331 140l0 -9M331 132l1 3M332 140l0 -7M332 137l1 -2"/>
<path stroke="red" d="M333 144l0 -13M333 139l1 3 0 -10M334 138l1 -5M335 141l0 -9M335 140l1 -2M336 143l0 -11 1 2M337 142l0 -10M337 142l1 -4M338 141l0 -10M338 138l1 3 0 -11 1 4M340 140l0 -7M340 135l1 -2M341 142l0 -10 1 4M342 143l0 -11M342 139l1 1"/>
<path stroke="red" d="M343 141l0 -10M343 136l1 -2M344 142l0 -11M344 138l1 3 0 -10 1 3M346 143l0 -10M346 135l1 1M347 142l0 -11M347 139l1 -2M348 142l0 -12M348 142l1 -1M349 142l0 -10M349 142l1 -4M350 144l0 -12M350 140l1 -2M351 141l0 -9M351 134l1 4"/>
<path stroke="red" d="M352 141l0 -9M352 136l1 -4M353 142l0 -10 1 3M354 141l0 -9M354 136l1 -5M355 141l0 -10M355 141l1 2 0 -11M356 140l1 -3M357 141l0 -9M357 140l1 -2M358 141l0 -9M358 133l1 -1M359 142l0 -10M359 142l1 -4M360 141l0 -11M360 135l1 -3"/>
<path stroke="red" d="M361 142l0 -10M361 135l1 4M362 141l0 -10M362 141l1 1 0 -10M363 135l1 2M364 141l0 -9M364 136l1 -4M365 141l0 -9M365 141l1 0M366 142l0 -11M366 133l1 3M367 143l0 -11M367 140l1 -2M368 141l0 -9 1 3M369 141l0 -10M369 138l1 1 0 -8"/>
<path stroke="red" d="M370 133l1 2M371 143l0 -13M371 131l1 3M372 142l0 -11 1 4M373 142l0 -11 1 3M374 139l0 -8M374 138l1 2M375 142l0 -11M375 138l1 -1M376 141l0 -10M376 133l1 0M377 142l0 -9M377 142l1 -4M378 141l0 -11M378 135l1 -2M379 138l0 -5 1 5"/>
<path stroke="red" d="M380 143l0 -13M380 136l1 -5M381 141l0 -11M381 140l1 1M382 143l0 -12M382 143l1 -5M383 141l0 -9M383 136l1 1M384 141l0 -10M384 135l1 2M385 140l0 -9M385 135l1 6 0 -9M386 136l1 -5M387 143l0 -12M387 143l1 -4M388 142l0 -12M388 142l1 -2"/>
<path stroke="red" d="M389 143l0 -11M389 133l1 3M390 142l0 -10M390 133l1 3M391 142l0 -11M391 140l1 2 0 -10M392 135l1 0M393 140l0 -7M393 140l1 -5M394 144l0 -12 1 3M395 141l0 -10M395 140l1 -2M396 143l0 -11M396 135l1 3M397 142l0 -11M397 134l1 -3"/>
<path stroke="red" d="M398 141l0 -10M398 132l1 6M399 143l0 -12M399 137l1 -1 0 -3 1 2M401 137l0 -5M401 135l1 1M402 143l0 -12M402 133l1 -3M403 142l0 -12M403 132l1 5M404 143l0 -12M404 138l1 0M405 141l0 -11 1 4M406 141l0 -10M406 137l1 -1M407 140l0 -8"/>
<path stroke="red" d="M407 135l1 -3M408 141l0 -9M408 133l1 3M409 142l0 -11M409 141l1 -3M410 142l0 -11M410 133l1 4M411 141l0 -10M411 135l1 -2M412 143l0 -11 1 3M413 142l0 -11M413 142l1 -6 0 -3M414 136l1 2M415 140l0 -8M415 140l1 2 0 -10M416 142l1 -3"/>
<path stroke="red" d="M417 141l0 -9M417 135l1 -2M418 143l0 -11M418 136l1 -4M419 144l0 -13M419 142l1 -4M420 142l0 -10M420 138l1 -2M421 140l0 -10M421 139l1 -1M422 140l0 -3M422 138l1 0M423 141l0 -5M423 138l1 -3M424 142l0 -11M424 133l1 3M425 141l0 -9"/>
<path stroke="red" d="M425 140l1 -2M426 140l0 -8M426 137l1 2M427 142l0 -10M427 136l1 -4M428 142l0 -11M428 132l1 3M429 142l0 -11M429 138l1 2M430 142l0 -10M430 139l1 -2M431 142l0 -10M431 138l1 -4M432 143l0 -13M432 132l1 1M433 143l0 -12M433 134l1 -3"/>
<path stroke="red" d="M434 142l0 -11M434 142l1 -4M435 142l0 -10M435 142l1 -3M436 142l0 -12M436 133l1 -3M437 141l0 -11M437 131l1 6M438 142l0 -10M438 141l1 -1M439 143l0 -9M439 137l1 1M440 143l0 -12M440 133l1 1M441 143l0 -11M441 138l1 -3M442 142l0 -10"/>
<path stroke="red" d="M442 136l1 5M443 142l0 -11M443 135l1 2M444 141l0 -9M444 135l1 6 0 -9M445 136l1 6 0 -11 1 4M447 143l0 -10M447 140l1 -1M448 141l0 -11M448 135l1 -3M449 137l0 -5M449 133l1 3M450 144l0 -12M450 138l1 3 0 -10M451 135l1 1M452 141l0 -11"/>
<path stroke="red" d="M452 140l1 -1M453 142l0 -11M453 142l1 -4M454 143l0 -13 1 0M455 141l0 -11M455 139l1 -1M456 141l0 -4M456 138l1 1M457 140l0 -3 1 3M458 142l0 -11M458 133l1 2M459 142l0 -9M459 140l1 2 0 -11M460 137l1 -2M461 138l0 -5M461 134l1 0"/>
<path stroke="red" d="M462 143l0 -11M462 135l1 5M463 141l0 -9M463 138l1 -3M464 141l0 -10M464 134l1 1M465 138l0 -5M465 135l1 1M466 143l0 -12M466 132l1 -1M467 141l0 -11M467 139l1 -1M468 142l0 -11M468 141l1 -4M469 142l0 -11M469 137l1 -5M470 143l0 -11"/>
<path stroke="red" d="M470 132l1 0M471 142l0 -10M471 142l1 -4M472 140l0 -9M472 139l1 1M473 142l0 -6 1 -5M474 142l0 -11 1 4M475 141l0 -8M475 136l1 -3M476 142l0 -12M476 132l1 0M477 142l0 -12M477 139l1 -2M478 141l0 -10M478 134l1 7M479 142l0 -10"/>
<path stroke="red" d="M479 132l1 2M480 142l0 -10M480 135l1 6M481 143l0 -11M481 140l1 -3M482 142l0 -10M482 138l1 0M483 141l0 -11M483 137l1 0M484 141l0 -9M484 136l1 2M485 141l0 -9M485 139l1 -2M486 141l0 -10M486 137l1 2M487 142l0 -11M487 132l1 -1"/>
<path stroke="red" d="M488 142l0 -11M488 132l1 0M489 142l0 -10M489 142l1 -2M490 143l0 -12M490 141l1 1 0 -11 1 3M492 141l0 -10M492 140l1 3 0 -12M493 140l1 -3M494 141l0 -9M494 135l1 1M495 143l0 -11M495 139l1 -2M496 139l0 -8M496 135l1 5M497 143l0 -11"/>
<path stroke="red" d="M497 142l1 -4M498 142l0 -10M498 137l1 -3M499 142l0 -11 1 3M500 141l0 -10M500 138l1 4 0 -11M501 137l1 5 0 -11M502 135l1 2M503 142l0 -11M503 133l1 -2M504 141l0 -11M504 141l1 -3M505 141l0 -10M505 139l1 -1M506 140l0 -8M506 139l1 -2"/>
<path stroke="red" d="M507 143l0 -11M507 133l1 4M508 142l0 -11M508 136l1 1M509 142l0 -11M509 132l1 1M510 142l0 -9M510 135l1 3M511 142l0 -10M511 138l1 -5M512 142l0 -11M512 132l1 6M513 142l0 -12M513 141l1 1 0 -9 1 2M515 139l0 -8M515 139l1 2M516 143l0 -6"/>
<path stroke="red" d="M516 137l1 -1M517 140l0 -9M517 138l1 3 0 -10M518 141l1 -4M519 141l0 -9M519 137l1 -5M520 142l0 -10 1 2M521 142l0 -11M521 142l1 -4M522 142l0 -11M522 132l1 2M523 140l0 -8M523 140l1 -2M524 140l0 -8M524 136l1 0M525 141l0 -10"/>
<path stroke="red" d="M525 141l1 -2M526 142l0 -10M526 142l1 -5M527 140l0 -9M527 134l1 -1M528 138l0 -6 1 4M529 144l0 -12M529 139l1 -4M530 143l0 -11 1 0M531 141l0 -9M531 136l1 1M532 141l0 -9M532 136l1 4 0 -8M533 140l1 -2M534 142l0 -10M534 134l1 -2"/>
<path stroke="red" d="M535 141l0 -9 1 6M536 142l0 -8 1 -3M537 142l0 -11M537 132l1 4M538 141l0 -11M538 132l1 3M539 140l0 -8M539 136l1 -4M540 143l0 -12M540 142l1 -4M541 142l0 -11M541 135l1 -1M542 137l0 -5M542 134l1 -4M543 143l0 -13M543 133l1 4"/>
<path stroke="red" d="M544 143l0 -13M544 132l1 4M545 141l0 -10M545 137l1 -1M546 141l0 -9M546 136l1 -4M547 141l0 -11M547 141l1 -4M548 141l0 -11M548 138l1 1M549 143l0 -12M549 133l1 3M550 142l0 -11M550 135l1 5 0 -9M551 134l1 0M552 139l0 -6M552 137l1 1"/>
<path stroke="red" d="M553 143l0 -11M553 135l1 4M554 141l0 -9M554 141l1 -4M555 142l0 -6M555 142l1 -4M556 142l0 -11M556 133l1 -1M557 140l0 -9M557 140l1 -1M558 143l0 -13M558 137l1 2M559 142l0 -10M559 133l1 0M560 142l0 -11M560 132l1 1M561 141l0 -10"/>
<path stroke="red" d="M561 141l1 -4M562 142l0 -11M562 133l1 -2M563 142l0 -11M563 135l1 1M564 143l0 -13 1 3M565 142l0 -10 1 3M566 140l0 -9M566 138l1 -1M567 141l0 -10M567 136l1 -3M568 139l0 -7M568 134l1 1M569 144l0 -13M569 139l1 0M570 141l0 -10"/>
<path stroke="red" d="M570 138l1 2M571 142l0 -11M571 137l1 -4M572 141l0 -9 1 2M573 141l0 -8M573 141l1 -2M574 142l0 -10 1 -1M575 142l0 -11M575 135l1 -3M576 142l0 -10M576 134l1 -2M577 142l0 -11M577 138l1 1M578 143l0 -11M578 140l1 -1M579 140l0 -8"/>
<path stroke="red" d="M579 133l1 -1M580 141l0 -10M580 141l1 0M581 143l0 -12M581 143l1 -4M582 141l0 -9M582 141l1 0 0 -11M583 136l1 -2M584 136l0 -3M584 136l1 -3M585 144l0 -12M585 138l1 5 0 -12M586 141l1 1 0 -10M587 141l1 -4M588 141l0 -8M588 137l1 -2"/>
<path stroke="red" d="M589 141l0 -9M589 136l1 0M590 140l0 -10M590 135l1 4M591 142l0 -10M591 138l1 -5M592 142l0 -10M592 133l1 5M593 141l0 -9M593 136l1 4 0 -9M594 137l1 -2M595 142l0 -12M595 141l1 1 0 -11M596 134l1 4M597 142l0 -10M597 139l1 -3M598 141l0 -9"/>
<path stroke="red" d="M598 134l1 1M599 137l0 -4M599 135l1 1M600 138l0 -5M600 136l1 -3M601 144l0 -12M601 136l1 -4M602 141l0 -9M602 134l1 -2M603 140l0 -9M603 137l1 2M604 142l0 -11M604 134l1 -2M605 142l0 -12 1 6M606 142l0 -11M606 138l1 -7M607 140l0 -9"/>
<path stroke="red" d="M607 138l1 1M608 140l0 -9M608 136l1 0M609 140l0 -8M609 140l1 0M610 142l0 -11M610 132l1 1M611 141l0 -10M611 136l1 -2M612 140l0 -8M612 138l1 3 0 -11M613 141l1 -2M614 142l0 -9 1 3M615 141l0 -11M615 136l1 5M616 142l0 -10M616 142l1 -1"/>
<path stroke="red" d="M617 141l0 -11M617 135l1 2M618 141l0 -10M618 140l1 1M619 142l0 -11M619 142l1 -4M620 141l0 -10 1 5M621 142l0 -12M621 141l1 -5 0 -3M622 136l1 1M623 143l0 -11M623 142l1 -1M624 142l0 -12M624 135l1 -1M625 144l0 -12 1 -1M626 141l0 -10"/>
<path stroke="red" d="M626 135l1 6 0 -8M627 135l1 -3M628 142l0 -10M628 135l1 -3M629 141l0 -10M629 136l1 5 0 -10M630 134l1 2M631 142l0 -11M631 138l1 3 0 -10M632 136l1 3M633 141l0 -11M633 131l1 2M634 141l0 -8M634 134l1 2M635 142l0 -10M635 138l1 -6"/>
<path stroke="red" d="M636 142l0 -13M636 134l1 -2M637 137l0 -6M637 137l1 -2M638 142l0 -10 1 1M639 142l0 -10M639 139l1 -2M640 142l0 -11M640 137l1 -6M641 140l0 -9M641 137l1 2M642 142l0 -12M642 140l1 -2M643 143l0 -13M643 137l1 4M644 142l0 -9 1 3"/>
<path stroke="red" d="M645 141l0 -10M645 135l1 5M646 143l0 -12M646 137l1 0M647 141l0 -10M647 141l1 -3M648 140l0 -9M648 134l1 -3M649 139l0 -8M649 134l1 4M650 142l0 -10M650 142l1 -4M651 141l0 -10M651 136l1 0M652 142l0 -12M652 139l1 -2M653 141l0 -4"/>
<path stroke="red" d="M653 138l1 -1M654 142l0 -12M654 141l1 -4 0 -5M655 136l1 0M656 144l0 -13M656 142l1 1 0 -12M657 138l1 -4M658 142l0 -12M658 140l1 1 0 -9 1 4M660 143l0 -13M660 140l1 -1M661 142l0 -11M661 141l1 -3M662 142l0 -11M662 139l1 -1M663 141l0 -10"/>
<path stroke="red" d="M663 137l1 -5M664 142l0 -10M664 141l1 -4 0 -6M665 137l1 3M666 143l0 -13M666 136l1 1M667 140l0 -10M667 139l1 1M668 142l0 -6 1 -4M669 141l0 -9M669 136l1 -2M670 143l0 -12M670 143l1 -5M671 140l0 -9M671 137l1 -1M672 140l0 -7"/>
<path stroke="red" d="M672 138l1 -6M673 141l0 -10M673 138l1 3M674 143l0 -12M674 137l1 1M675 141l0 -10M675 133l1 2M676 142l0 -12M676 138l1 2M677 142l0 -10 1 0M678 142l0 -11M678 134l1 -3M679 141l0 -10M679 135l1 -3M680 141l0 -9M680 137l1 -1M681 141l0 -9"/>
<path stroke="red" d="M681 138l1 3 0 -9 1 1M683 141l0 -9M683 136l1 -2M684 144l0 -12M684 133l1 0M685 141l0 -10M685 136l1 -3M686 141l0 -9M686 141l1 -4M687 142l0 -12M687 141l1 -3M688 141l0 -9M688 141l1 0 0 -8 1 2M690 138l0 -6M690 133l1 5M691 143l0 -12"/>
<path stroke="red" d="M691 135l1 -1M692 136l0 -2 1 1M693 144l0 -12M693 140l1 -2M694 141l0 -11M694 133l1 -1M695 142l0 -12M695 141l1 -1M696 143l0 -11M696 133l1 4M697 141l0 -10M697 135l1 6 0 -9M698 137l1 -5M699 141l0 -9M699 137l1 2M700 142l0 -11"/>
<path stroke="red" d="M700 136l1 -4M701 141l0 -11M701 134l1 7 0 -8M702 135l1 -1M703 138l0 -5M703 134l1 3M704 142l0 -10M704 140l1 3 0 -10 1 -1M706 141l0 -10M706 140l1 1 0 -10M707 134l1 2M708 141l0 -9M708 140l1 -3M709 142l0 -10M709 134l1 -2M710 142l0 -10"/>
<path stroke="red" d="M710 140l1 -3M711 141l0 -10M711 135l1 -3M712 141l0 -10M712 141l1 -3M713 142l0 -11M713 132l1 2M714 141l0 -9M714 140l1 -3M715 141l0 -9M715 138l1 -2M716 142l0 -11M716 132l1 7M717 142l0 -10M717 138l1 -2M718 142l0 -11M718 135l1 -4"/>
<path stroke="red" d="M719 142l0 -11 1 4M720 142l0 -10M720 134l1 -3M721 143l0 -12M721 132l1 3M722 143l0 -12M722 135l1 5M723 141l0 -9 1 2M724 143l0 -12M724 139l1 2 0 -11M725 141l1 -3M726 140l0 -9M726 139l1 -5M727 141l0 -10 1 3M728 142l0 -10M728 142l1 -2"/>
<path stroke="red" d="M729 141l0 -12M729 137l1 -4M730 143l0 -12M730 140l1 -2M731 141l0 -9M731 138l1 -4M732 144l0 -13 1 6M733 143l0 -6M733 138l1 -2M734 141l0 -9M734 137l1 3 0 -8 1 1M736 142l0 -11M736 138l1 -5M737 140l0 -10M737 132l1 4M738 142l0 -11"/>
<path stroke="red" d="M738 136l1 -3M739 143l0 -11M739 143l1 -6M740 139l0 -8M740 137l1 1M741 142l0 -11M741 137l1 1M742 141l0 -11M742 132l1 3M743 140l0 -8M743 135l1 -4M744 142l0 -12M744 131l1 1M745 142l0 -10M745 140l1 -2M746 141l0 -10M746 141l1 -4"/>
<path stroke="red" d="M747 142l0 -5 1 4 0 -10M748 133l1 2M749 142l0 -11 1 4M750 142l0 -12M750 135l1 7 0 -9M751 136l1 -5M752 143l0 -12M752 132l1 3M753 142l0 -9M753 136l1 -4M754 142l0 -11M754 142l1 1 0 -12M755 136l1 -3M756 136l0 -4 1 4M757 144l0 -13"/>
<path stroke="red" d="M757 133l1 -2M758 142l0 -11 1 5M759 143l0 -11M759 134l1 2M760 141l0 -10 1 3M761 140l0 -8M761 135l1 5 0 -7M762 135l1 -4M763 142l0 -11M763 137l1 5 0 -10 1 1M765 142l0 -10M765 137l1 -5M766 142l0 -11M766 138l1 -2M767 142l0 -10"/>
<path stroke="red" d="M767 137l1 -4M768 143l0 -12M768 133l1 2M769 142l0 -12M769 136l1 -3M770 142l0 -10M770 138l1 -4M771 140l0 -8 1 4M772 141l0 -10M772 138l1 -1M773 141l0 -9M773 137l1 -2M774 143l0 -12M774 138l1 -6M775 141l0 -10M775 135l1 0M776 143l0 -12"/>
<path stroke="red" d="M776 139l1 1 0 -9M777 134l1 2M778 142l0 -11M778 138l1 -5M779 140l0 -9M779 132l1 -1M780 142l0 -12M780 134l1 1M781 143l0 -11M781 142l1 -5M782 140l0 -9M782 135l1 -2M783 141l0 -10M783 139l1 0M784 143l0 -11M784 134l1 -2M785 138l0 -7"/>
<path stroke="red" d="M785 138l1 5 0 -12M786 136l1 -4M787 143l0 -12M787 132l1 3M788 141l0 -10M788 135l1 5 0 -9 1 3M790 144l0 -13M790 144l1 -4M791 142l0 -11M791 141l1 -3M792 140l0 -10M792 136l1 -3M793 141l0 -10M793 137l1 0M794 142l0 -11M794 135l1 -1"/>
<path stroke="red" d="M795 135l0 -2M795 135l1 -1M796 137l0 -3M796 137l1 -2M797 140l0 -6M797 136l1 -3M798 143l0 -11 1 4M799 142l0 -10M799 140l1 0M800 141l0 -9M800 141l1 -3M801 141l0 -10M801 135l1 -4M802 140l0 -9M802 135l1 -3M803 140l0 -8M803 135l1 0"/>
<path stroke="red" d="M804 142l0 -11M804 141l1 -3M805 139l0 -9M805 137l1 -4M806 143l0 -12 1 5M807 142l0 -10M807 135l1 2M808 143l0 -10M808 135l1 3M809 142l0 -10M809 137l1 -4M810 142l0 -11M810 138l1 -5M811 142l0 -12M811 142l1 -1 0 -8M812 134l1 2"/>
<path stroke="red" d="M813 144l0 -12 1 -1M814 142l0 -11M814 136l1 1M815 143l0 -11M815 135l1 1M816 140l0 -8M816 140l1 1M817 142l0 -11M817 134l1 -2M818 143l0 -12M818 142l1 0 0 -11M819 136l1 -4M820 142l0 -10M820 142l1 -4M821 142l0 -11 1 2M822 142l0 -11"/>
<path stroke="red" d="M822 140l1 -3M823 142l0 -10M823 139l1 -1M824 142l0 -11M824 137l1 1M825 141l0 -4M825 138l1 -4M826 141l0 -10M826 133l1 -1M827 142l0 -11M827 135l1 5M828 141l0 -9M828 141l1 -3M829 142l0 -10M829 136l1 -4M830 140l0 -8M830 135l1 0"/>
<path stroke="red" d="M831 138l0 -5M831 138l1 -5M832 142l0 -9M832 142l1 -4M833 142l0 -12M833 138l1 -1M834 140l0 -8M834 138l1 2M835 142l0 -11M835 140l1 -1M836 141l0 -9M836 135l1 -2M837 139l0 -7M837 134l1 1M838 137l0 -5M838 133l1 4M839 143l0 -11"/>
<path stroke="red" d="M839 141l1 -3M840 144l0 -12M840 134l1 -2M841 142l0 -10M841 138l1 -1M842 141l0 -9M842 137l1 0M843 140l0 -8M843 136l1 4M844 142l0 -11 1 1M845 142l0 -11M845 134l1 4M846 142l0 -10M846 139l1 0M847 142l0 -11M847 134l1 -2M848 141l0 -9"/>
<path stroke="red" d="M848 137l1 1M849 142l0 -11M849 138l1 0M850 142l0 -8 1 -4M851 141l0 -11M851 140l1 -3M852 141l0 -10M852 137l1 -6M853 141l0 -10 1 1M854 142l0 -10M854 141l1 -2M855 142l0 -12M855 132l1 4M856 142l0 -11M856 135l1 6M857 142l0 -9"/>
<path stroke="red" d="M857 138l1 3 0 -10M858 138l1 2 0 -8 1 3M860 142l0 -10M860 138l1 -6M861 141l0 -11M861 137l1 2M862 141l0 -10 1 4M863 142l0 -12M863 137l1 5 0 -10 1 3M865 141l0 -12 1 4M866 141l0 -9M866 136l1 -3M867 144l0 -11M867 135l1 -3M868 142l0 -10"/>
<path stroke="red" d="M868 132l1 -1M869 140l0 -9M869 140l1 -1M870 148l0 -17"/>
</svg>
