<?xml version='1.0' encoding='UTF-8' standalone='no'?>
<svg viewBox="0 0 418 314" xmlns="http://www.w3.org/2000/svg" height="314pt" width="418pt" xmlns:xlink="http://www.w3.org/1999/xlink">
 <title>Figure 1</title>
 <desc>
Creator: GL2PS 1.4.2, (C) 1999-2020 C. Geuzaine
For: Octave
CreationDate: Sun Oct 26 16:22:29 2025
</desc>
 <defs/>
 <polygon points="0,0 418,0 418,314 0,314" fill="#ffffff"/>
 <g>
  <polygon points="0,314 418,314 418,0 0,0" fill="#ffffff" shape-rendering="crispEdges"/>
  <clipPath id="cp00418314">
   <polygon points="0,314 418,314 418,0 0,0"/>
  </clipPath>
  <g clip-path="url(#cp00418314)">
   <polygon points="54.4361,279.499 378.95,279.499 378.95,23.5533 54.4361,23.5533" fill="#ffffff" shape-rendering="crispEdges"/>
   <g font-style="normal" xml:space="preserve" font-weight="bold" font-size="11" font-family="FreeSans" transform="translate(162.69,13.5533) rotate(-0,54,0)">
    <text y="-3" fill="rgb(0,0,0)" x="0 10 17 24 28 34 40 46 50 53 60 63 71 78 84 87 93 99 102 ">Montecarlo Analysis</text>
   </g>
   <g font-style="normal" xml:space="preserve" font-weight="normal" font-size="11" font-family="FreeSans" transform="translate(-14.0582,151.526) rotate(-90,46.5,0)">
    <text y="-3" fill="rgb(38,38,38)" x="0 8 14 23 29 35 39 42 48 51 54 59 65 74 80 82 88 ">Number of samples</text>
   </g>
   <g font-style="normal" xml:space="preserve" font-weight="normal" font-size="11" font-family="FreeSans" transform="translate(199.19,310.998) rotate(-0,17.5,-11)">
    <text y="-2" fill="rgb(38,38,38)" x="0 7 13 19 22 25 32 ">Vbg [V]</text>
   </g>
   <polygon points="85.2188,279.499 104.876,279.499 104.876,272.186 85.2188,272.186 65.5644,272.186 65.5644,279.499" fill="#20928c" shape-rendering="crispEdges"/>
   <polygon points="124.531,279.499 124.531,250.248 104.876,250.248 104.876,279.499" fill="#20928c" shape-rendering="crispEdges"/>
   <polygon points="144.188,279.499 144.188,133.244 124.531,133.244 124.531,279.499" fill="#20928c" shape-rendering="crispEdges"/>
   <polygon points="163.843,279.499 163.843,147.87 144.188,147.87 144.188,279.499" fill="#20928c" shape-rendering="crispEdges"/>
   <polygon points="183.5,279.499 183.5,82.0552 163.843,82.0552 163.843,279.499" fill="#20928c" shape-rendering="crispEdges"/>
   <polygon points="203.154,279.499 203.154,111.306 183.5,111.306 183.5,279.499" fill="#20928c" shape-rendering="crispEdges"/>
   <polygon points="222.812,279.499 222.812,45.4915 203.154,45.4915 203.154,279.499" fill="#20928c" shape-rendering="crispEdges"/>
   <polygon points="242.469,279.499 242.469,82.0552 222.812,82.0552 222.812,279.499" fill="#20928c" shape-rendering="crispEdges"/>
   <polygon points="262.124,279.499 262.124,155.183 242.469,155.183 242.469,279.499" fill="#20928c" shape-rendering="crispEdges"/>
   <polygon points="281.781,279.499 281.781,191.746 262.124,191.746 262.124,279.499" fill="#20928c" shape-rendering="crispEdges"/>
   <polygon points="301.436,279.499 301.436,228.31 281.781,228.31 281.781,279.499" fill="#20928c" shape-rendering="crispEdges"/>
   <polygon points="321.093,279.499 321.093,242.935 301.436,242.935 301.436,279.499" fill="#20928c" shape-rendering="crispEdges"/>
   <polygon points="340.749,279.499 340.749,250.248 321.093,250.248 321.093,279.499" fill="#20928c" shape-rendering="crispEdges"/>
   <polygon points="360.407,279.499 360.407,272.186 340.749,272.186 340.749,279.499" fill="#20928c" shape-rendering="crispEdges"/>
   <polyline stroke-linejoin="miter" stroke-width="0.5" points="85.2188,272.186 65.5644,272.186 65.5644,279.499 85.2188,279.499 85.2188,272.186" fill="none" stroke-linecap="butt" stroke="#000000"/>
   <polyline stroke-linejoin="miter" stroke-width="0.5" points="104.876,272.186 85.2188,272.186 85.2188,279.499 104.876,279.499 104.876,272.186" fill="none" stroke-linecap="butt" stroke="#000000"/>
   <polyline stroke-linejoin="miter" stroke-width="0.5" points="124.531,250.248 104.876,250.248 104.876,279.499 124.531,279.499 124.531,250.248" fill="none" stroke-linecap="butt" stroke="#000000"/>
   <polyline stroke-linejoin="miter" stroke-width="0.5" points="144.188,133.244 124.531,133.244 124.531,279.499 144.188,279.499 144.188,133.244" fill="none" stroke-linecap="butt" stroke="#000000"/>
   <polyline stroke-linejoin="miter" stroke-width="0.5" points="163.843,147.87 144.188,147.87 144.188,279.499 163.843,279.499 163.843,147.87" fill="none" stroke-linecap="butt" stroke="#000000"/>
   <polyline stroke-linejoin="miter" stroke-width="0.5" points="183.5,82.0552 163.843,82.0552 163.843,279.499 183.5,279.499 183.5,82.0552" fill="none" stroke-linecap="butt" stroke="#000000"/>
   <polyline stroke-linejoin="miter" stroke-width="0.5" points="203.154,111.306 183.5,111.306 183.5,279.499 203.154,279.499 203.154,111.306" fill="none" stroke-linecap="butt" stroke="#000000"/>
   <polyline stroke-linejoin="miter" stroke-width="0.5" points="222.812,45.4915 203.154,45.4915 203.154,279.499 222.812,279.499 222.812,45.4915" fill="none" stroke-linecap="butt" stroke="#000000"/>
   <polyline stroke-linejoin="miter" stroke-width="0.5" points="242.469,82.0552 222.812,82.0552 222.812,279.499 242.469,279.499 242.469,82.0552" fill="none" stroke-linecap="butt" stroke="#000000"/>
   <polyline stroke-linejoin="miter" stroke-width="0.5" points="262.124,155.183 242.469,155.183 242.469,279.499 262.124,279.499 262.124,155.183" fill="none" stroke-linecap="butt" stroke="#000000"/>
   <polyline stroke-linejoin="miter" stroke-width="0.5" points="281.781,191.746 262.124,191.746 262.124,279.499 281.781,279.499 281.781,191.746" fill="none" stroke-linecap="butt" stroke="#000000"/>
   <polyline stroke-linejoin="miter" stroke-width="0.5" points="301.436,228.31 281.781,228.31 281.781,279.499 301.436,279.499 301.436,228.31" fill="none" stroke-linecap="butt" stroke="#000000"/>
   <polyline stroke-linejoin="miter" stroke-width="0.5" points="321.093,242.935 301.436,242.935 301.436,279.499 321.093,279.499 321.093,242.935" fill="none" stroke-linecap="butt" stroke="#000000"/>
   <polyline stroke-linejoin="miter" stroke-width="0.5" points="340.749,250.248 321.093,250.248 321.093,279.499 340.749,279.499 340.749,250.248" fill="none" stroke-linecap="butt" stroke="#000000"/>
   <polyline stroke-linejoin="miter" stroke-width="0.5" points="360.407,272.186 340.749,272.186 340.749,279.499 360.407,279.499 360.407,272.186" fill="none" stroke-linecap="butt" stroke="#000000"/>
   <polyline stroke-linejoin="miter" stroke-width="0.5" points="54.4361,279.499 54.4361,276.255" fill="none" stroke-linecap="butt" stroke="#262626"/>
   <polyline stroke-linejoin="miter" stroke-width="0.5" points="54.4361,23.5533 54.4361,26.7977" fill="none" stroke-linecap="butt" stroke="#262626"/>
   <polyline stroke-linejoin="miter" stroke-width="0.5" points="100.794,279.499 100.794,276.255" fill="none" stroke-linecap="butt" stroke="#262626"/>
   <polyline stroke-linejoin="miter" stroke-width="0.5" points="100.794,23.5533 100.794,26.7977" fill="none" stroke-linecap="butt" stroke="#262626"/>
   <polyline stroke-linejoin="miter" stroke-width="0.5" points="147.156,279.499 147.156,276.255" fill="none" stroke-linecap="butt" stroke="#262626"/>
   <polyline stroke-linejoin="miter" stroke-width="0.5" points="147.156,23.5533 147.156,26.7977" fill="none" stroke-linecap="butt" stroke="#262626"/>
   <polyline stroke-linejoin="miter" stroke-width="0.5" points="193.514,279.499 193.514,276.255" fill="none" stroke-linecap="butt" stroke="#262626"/>
   <polyline stroke-linejoin="miter" stroke-width="0.5" points="193.514,23.5533 193.514,26.7977" fill="none" stroke-linecap="butt" stroke="#262626"/>
   <polyline stroke-linejoin="miter" stroke-width="0.5" points="239.872,279.499 239.872,276.255" fill="none" stroke-linecap="butt" stroke="#262626"/>
   <polyline stroke-linejoin="miter" stroke-width="0.5" points="239.872,23.5533 239.872,26.7977" fill="none" stroke-linecap="butt" stroke="#262626"/>
   <polyline stroke-linejoin="miter" stroke-width="0.5" points="286.23,279.499 286.23,276.255" fill="none" stroke-linecap="butt" stroke="#262626"/>
   <polyline stroke-linejoin="miter" stroke-width="0.5" points="286.23,23.5533 286.23,26.7977" fill="none" stroke-linecap="butt" stroke="#262626"/>
   <polyline stroke-linejoin="miter" stroke-width="0.5" points="332.588,279.499 332.588,276.255" fill="none" stroke-linecap="butt" stroke="#262626"/>
   <polyline stroke-linejoin="miter" stroke-width="0.5" points="332.588,23.5533 332.588,26.7977" fill="none" stroke-linecap="butt" stroke="#262626"/>
   <polyline stroke-linejoin="miter" stroke-width="0.5" points="378.95,279.499 378.95,276.255" fill="none" stroke-linecap="butt" stroke="#262626"/>
   <polyline stroke-linejoin="miter" stroke-width="0.5" points="378.95,23.5533 378.95,26.7977" fill="none" stroke-linecap="butt" stroke="#262626"/>
   <g font-style="normal" xml:space="preserve" font-weight="normal" font-size="10" font-family="FreeSans" transform="translate(43.9343,294.998) rotate(-0,10.5,-8)">
    <text y="-0" fill="rgb(38,38,38)" x="0 6 9 15 ">1.02</text>
   </g>
   <g font-style="normal" xml:space="preserve" font-weight="normal" font-size="10" font-family="FreeSans" transform="translate(87.2932,294.998) rotate(-0,13.5,-8)">
    <text y="-0" fill="rgb(38,38,38)" x="0 6 9 15 21 ">1.022</text>
   </g>
   <g font-style="normal" xml:space="preserve" font-weight="normal" font-size="10" font-family="FreeSans" transform="translate(133.652,294.998) rotate(-0,13.5,-8)">
    <text y="-0" fill="rgb(38,38,38)" x="0 6 9 15 21 ">1.024</text>
   </g>
   <g font-style="normal" xml:space="preserve" font-weight="normal" font-size="10" font-family="FreeSans" transform="translate(180.011,294.998) rotate(-0,13.5,-8)">
    <text y="-0" fill="rgb(38,38,38)" x="0 6 9 15 21 ">1.026</text>
   </g>
   <g font-style="normal" xml:space="preserve" font-weight="normal" font-size="10" font-family="FreeSans" transform="translate(226.37,294.998) rotate(-0,13.5,-8)">
    <text y="-0" fill="rgb(38,38,38)" x="0 6 9 15 21 ">1.028</text>
   </g>
   <g font-style="normal" xml:space="preserve" font-weight="normal" font-size="10" font-family="FreeSans" transform="translate(275.729,294.998) rotate(-0,10.5,-8)">
    <text y="-0" fill="rgb(38,38,38)" x="0 6 9 15 ">1.03</text>
   </g>
   <g font-style="normal" xml:space="preserve" font-weight="normal" font-size="10" font-family="FreeSans" transform="translate(319.088,294.998) rotate(-0,13.5,-8)">
    <text y="-0" fill="rgb(38,38,38)" x="0 6 9 15 21 ">1.032</text>
   </g>
   <g font-style="normal" xml:space="preserve" font-weight="normal" font-size="10" font-family="FreeSans" transform="translate(365.446,294.998) rotate(-0,13.5,-8)">
    <text y="-0" fill="rgb(38,38,38)" x="0 6 9 15 21 ">1.034</text>
   </g>
   <polyline stroke-linejoin="miter" stroke-width="0.5" points="54.4361,279.499 57.6778,279.499" fill="none" stroke-linecap="butt" stroke="#262626"/>
   <polyline stroke-linejoin="miter" stroke-width="0.5" points="378.95,279.499 375.708,279.499" fill="none" stroke-linecap="butt" stroke="#262626"/>
   <polyline stroke-linejoin="miter" stroke-width="0.5" points="54.4361,242.935 57.6778,242.935" fill="none" stroke-linecap="butt" stroke="#262626"/>
   <polyline stroke-linejoin="miter" stroke-width="0.5" points="378.95,242.935 375.708,242.935" fill="none" stroke-linecap="butt" stroke="#262626"/>
   <polyline stroke-linejoin="miter" stroke-width="0.5" points="54.4361,206.372 57.6778,206.372" fill="none" stroke-linecap="butt" stroke="#262626"/>
   <polyline stroke-linejoin="miter" stroke-width="0.5" points="378.95,206.372 375.708,206.372" fill="none" stroke-linecap="butt" stroke="#262626"/>
   <polyline stroke-linejoin="miter" stroke-width="0.5" points="54.4361,169.808 57.6778,169.808" fill="none" stroke-linecap="butt" stroke="#262626"/>
   <polyline stroke-linejoin="miter" stroke-width="0.5" points="378.95,169.808 375.708,169.808" fill="none" stroke-linecap="butt" stroke="#262626"/>
   <polyline stroke-linejoin="miter" stroke-width="0.5" points="54.4361,133.244 57.6778,133.244" fill="none" stroke-linecap="butt" stroke="#262626"/>
   <polyline stroke-linejoin="miter" stroke-width="0.5" points="378.95,133.244 375.708,133.244" fill="none" stroke-linecap="butt" stroke="#262626"/>
   <polyline stroke-linejoin="miter" stroke-width="0.5" points="54.4361,96.6807 57.6778,96.6807" fill="none" stroke-linecap="butt" stroke="#262626"/>
   <polyline stroke-linejoin="miter" stroke-width="0.5" points="378.95,96.6807 375.708,96.6807" fill="none" stroke-linecap="butt" stroke="#262626"/>
   <polyline stroke-linejoin="miter" stroke-width="0.5" points="54.4361,60.117 57.6778,60.117" fill="none" stroke-linecap="butt" stroke="#262626"/>
   <polyline stroke-linejoin="miter" stroke-width="0.5" points="378.95,60.117 375.708,60.117" fill="none" stroke-linecap="butt" stroke="#262626"/>
   <polyline stroke-linejoin="miter" stroke-width="0.5" points="54.4361,23.5533 57.6778,23.5533" fill="none" stroke-linecap="butt" stroke="#262626"/>
   <polyline stroke-linejoin="miter" stroke-width="0.5" points="378.95,23.5533 375.708,23.5533" fill="none" stroke-linecap="butt" stroke="#262626"/>
   <g font-style="normal" xml:space="preserve" font-weight="normal" font-size="10" font-family="FreeSans" transform="translate(43.4418,283.499) rotate(-0,6,-4)">
    <text y="-0" fill="rgb(38,38,38)" x="0 ">0</text>
   </g>
   <g font-style="normal" xml:space="preserve" font-weight="normal" font-size="10" font-family="FreeSans" transform="translate(43.4418,246.935) rotate(-0,6,-4)">
    <text y="-0" fill="rgb(38,38,38)" x="0 ">5</text>
   </g>
   <g font-style="normal" xml:space="preserve" font-weight="normal" font-size="10" font-family="FreeSans" transform="translate(37.4418,210.372) rotate(-0,12,-4)">
    <text y="-0" fill="rgb(38,38,38)" x="0 6 ">10</text>
   </g>
   <g font-style="normal" xml:space="preserve" font-weight="normal" font-size="10" font-family="FreeSans" transform="translate(37.4418,173.808) rotate(-0,12,-4)">
    <text y="-0" fill="rgb(38,38,38)" x="0 6 ">15</text>
   </g>
   <g font-style="normal" xml:space="preserve" font-weight="normal" font-size="10" font-family="FreeSans" transform="translate(37.4418,137.244) rotate(-0,12,-4)">
    <text y="-0" fill="rgb(38,38,38)" x="0 6 ">20</text>
   </g>
   <g font-style="normal" xml:space="preserve" font-weight="normal" font-size="10" font-family="FreeSans" transform="translate(37.4418,100.681) rotate(-0,12,-4)">
    <text y="-0" fill="rgb(38,38,38)" x="0 6 ">25</text>
   </g>
   <g font-style="normal" xml:space="preserve" font-weight="normal" font-size="10" font-family="FreeSans" transform="translate(37.4418,64.117) rotate(-0,12,-4)">
    <text y="-0" fill="rgb(38,38,38)" x="0 6 ">30</text>
   </g>
   <g font-style="normal" xml:space="preserve" font-weight="normal" font-size="10" font-family="FreeSans" transform="translate(37.4418,27.5533) rotate(-0,12,-4)">
    <text y="-0" fill="rgb(38,38,38)" x="0 6 ">35</text>
   </g>
   <polyline stroke-linejoin="miter" stroke-width="0.5" stroke-dasharray="16,0" points="54.4361,279.499 378.95,279.499" fill="none" stroke-linecap="square" stroke="#262626"/>
   <polyline stroke-linejoin="miter" stroke-width="0.5" stroke-dasharray="16,0" points="54.4361,23.5533 378.95,23.5533" fill="none" stroke-linecap="square" stroke="#262626"/>
   <polyline stroke-linejoin="miter" stroke-width="0.5" stroke-dasharray="16,0" points="54.4361,279.499 54.4361,23.5533" fill="none" stroke-linecap="square" stroke="#262626"/>
   <polyline stroke-linejoin="miter" stroke-width="0.5" stroke-dasharray="16,0" points="378.95,279.499 378.95,23.5533" fill="none" stroke-linecap="square" stroke="#262626"/>
  </g>
  <clipPath id="cp00418314">
   <polygon points="0,314 418,314 418,0 0,0"/>
  </clipPath>
  <g clip-path="url(#cp00418314)">
   <polygon points="153.964,49.5463 370.95,49.5463 370.95,31.5498 153.964,31.5498" fill="#ffffff" shape-rendering="crispEdges"/>
   <polyline stroke-linejoin="miter" stroke-width="0.5" stroke-dasharray="16,0" points="153.964,49.5463 370.95,49.5463" fill="none" stroke-linecap="square" stroke="#262626"/>
   <polyline stroke-linejoin="miter" stroke-width="0.5" stroke-dasharray="16,0" points="153.964,31.5498 370.95,31.5498" fill="none" stroke-linecap="square" stroke="#262626"/>
   <polyline stroke-linejoin="miter" stroke-width="0.5" stroke-dasharray="16,0" points="153.964,49.5463 153.964,31.5498" fill="none" stroke-linecap="square" stroke="#262626"/>
   <polyline stroke-linejoin="miter" stroke-width="0.5" stroke-dasharray="16,0" points="370.95,49.5463 370.95,31.5498" fill="none" stroke-linecap="square" stroke="#262626"/>
   <polygon points="177.953,44.7462 177.953,36.3499 157.962,36.3499 157.962,44.7462" fill="#20928c" shape-rendering="crispEdges"/>
   <polyline stroke-linejoin="miter" stroke-width="0.5" points="177.953,36.3499 157.962,36.3499 157.962,44.7462 177.953,44.7462 177.953,36.3499" fill="none" stroke-linecap="butt" stroke="#000000"/>
   <g font-style="normal" xml:space="preserve" font-weight="normal" font-size="9" font-family="FreeSans" transform="translate(181.952,45.5481) rotate(-0,-0,-5)">
    <text y="-2" fill="rgb(0,0,0)" x="0 6 11 18 23 25 30 34 36 41 43 48 53 58 61 63 70 75 80 85 87 92 97 99 104 109 114 119 122 124 128 131 136 138 143 148 150 155 160 165 170 175 180 ">Samples = 200, mean =1.0266, std =0.0022582</text>
   </g>
  </g>
 </g>
</svg>
