<?xml version="1.0" standalone="yes"?>
<!DOCTYPE svg PUBLIC "-//W3C//DTD SVG 1.1//EN"
 "http://www.w3.org/Graphics/SVG/1.1/DTD/svg11.dtd">
<svg xmlns="http://www.w3.org/2000/svg" version="1.1"
  width="100%" height="100%" viewBox="0 0 1024 768"
  style="fill: none; font-family: Helvetica;
 font: Helvetica;
">

<!-- Creator: NGspice -->

<rect x="0" y="0" width="1024" height="768" fill="white" stroke="none"/>
<text stroke="none" fill="grey" font-size="16" x="358" y="752">
Supply Sweep
</text>
<text transform="rotate(-90, 20, 509)"  stroke="none" fill="grey" font-size="16" x="20" y="509">
Bandgap Reference Voltage
</text>
<text stroke="none" fill="grey" font-size="16" x="10" y="16">
dc1: BGR Supply Sweep
</text>
<path stroke="grey" d="M75 704l0 -638"/>
<text stroke="none" fill="grey" font-size="16" x="60" y="728">
0.0
</text>
<path stroke="grey" stroke-dasharray="1,2" d="M144 704l0 -638"/>
<text stroke="none" fill="grey" font-size="16" x="129" y="728">
0.2
</text>
<path stroke="grey" stroke-dasharray="1,2" d="M213 704l0 -638"/>
<text stroke="none" fill="grey" font-size="16" x="198" y="728">
0.4
</text>
<path stroke="grey" stroke-dasharray="1,2" d="M282 704l0 -638"/>
<text stroke="none" fill="grey" font-size="16" x="267" y="728">
0.6
</text>
<path stroke="grey" stroke-dasharray="1,2" d="M351 704l0 -638"/>
<text stroke="none" fill="grey" font-size="16" x="336" y="728">
0.8
</text>
<path stroke="grey" stroke-dasharray="1,2" d="M420 704l0 -638"/>
<text stroke="none" fill="grey" font-size="16" x="405" y="728">
1.0
</text>
<path stroke="grey" stroke-dasharray="1,2" d="M489 704l0 -638"/>
<text stroke="none" fill="grey" font-size="16" x="474" y="728">
1.2
</text>
<path stroke="grey" stroke-dasharray="1,2" d="M558 704l0 -638"/>
<text stroke="none" fill="grey" font-size="16" x="543" y="728">
1.4
</text>
<path stroke="grey" stroke-dasharray="1,2" d="M627 704l0 -638"/>
<text stroke="none" fill="grey" font-size="16" x="612" y="728">
1.6
</text>
<path stroke="grey" stroke-dasharray="1,2" d="M696 704l0 -638"/>
<text stroke="none" fill="grey" font-size="16" x="681" y="728">
1.8
</text>
<path stroke="grey" stroke-dasharray="1,2" d="M765 704l0 -638"/>
<text stroke="none" fill="grey" font-size="16" x="750" y="728">
2.0
</text>
<path stroke="grey" stroke-dasharray="1,2" d="M834 704l0 -638"/>
<text stroke="none" fill="grey" font-size="16" x="819" y="728">
2.2
</text>
<path stroke="grey" stroke-dasharray="1,2" d="M903 704l0 -638"/>
<text stroke="none" fill="grey" font-size="16" x="888" y="728">
2.4
</text>
<path stroke="grey" stroke-dasharray="1,2" d="M972 704l0 -638"/>
<text stroke="none" fill="grey" font-size="16" x="957" y="728">
2.6
</text>
<text stroke="none" fill="grey" font-size="16" x="614" y="752">
V
</text>
<path stroke="grey" d="M75 704l897 0"/>
<text stroke="none" fill="grey" font-size="16" x="33" y="712">
-0.0
</text>
<path stroke="grey" stroke-dasharray="1,2" d="M75 646l897 0"/>
<text stroke="none" fill="grey" font-size="16" x="43" y="654">
0.1
</text>
<path stroke="grey" stroke-dasharray="1,2" d="M75 588l897 0"/>
<text stroke="none" fill="grey" font-size="16" x="43" y="596">
0.2
</text>
<path stroke="grey" stroke-dasharray="1,2" d="M75 530l897 0"/>
<text stroke="none" fill="grey" font-size="16" x="43" y="538">
0.3
</text>
<path stroke="grey" stroke-dasharray="1,2" d="M75 472l897 0"/>
<text stroke="none" fill="grey" font-size="16" x="43" y="480">
0.4
</text>
<path stroke="grey" stroke-dasharray="1,2" d="M75 414l897 0"/>
<text stroke="none" fill="grey" font-size="16" x="43" y="422">
0.5
</text>
<path stroke="grey" stroke-dasharray="1,2" d="M75 356l897 0"/>
<text stroke="none" fill="grey" font-size="16" x="43" y="364">
0.6
</text>
<path stroke="grey" stroke-dasharray="1,2" d="M75 298l897 0"/>
<text stroke="none" fill="grey" font-size="16" x="43" y="306">
0.7
</text>
<path stroke="grey" stroke-dasharray="1,2" d="M75 240l897 0"/>
<text stroke="none" fill="grey" font-size="16" x="43" y="248">
0.8
</text>
<path stroke="grey" stroke-dasharray="1,2" d="M75 182l897 0"/>
<text stroke="none" fill="grey" font-size="16" x="43" y="190">
0.9
</text>
<path stroke="grey" stroke-dasharray="1,2" d="M75 124l897 0"/>
<text stroke="none" fill="grey" font-size="16" x="43" y="132">
1.0
</text>
<path stroke="grey" stroke-dasharray="1,2" d="M75 66l897 0"/>
<text stroke="none" fill="grey" font-size="16" x="43" y="74">
1.1
</text>
<text stroke="none" fill="grey" font-size="16" x="10" y="32">
V
</text>
<path stroke="red" d="M448 23l44 0"/>
<text stroke="none" fill="grey" font-size="16" x="502" y="32">
v(vbg)
</text>
<path stroke="red" d="M75 704l35 -57 34 -56 35 -57 34 -59 35 -59 34 -57 35 -54 34 -50 34 -46 35 -41 34 -33 35 -20 35 -6 34 -3 35 -2 34 -1 35 -1 34 -1 35 -1 34 -1 35 -1 34 0 35 -1 34 -1 35 -1"/>
</svg>
